<svg width="512" height="512" viewBox="0 0 512 512" fill="none" xmlns="http://www.w3.org/2000/svg">
  <!-- Background with Gradient -->
  <rect width="512" height="512" rx="80" fill="url(#bgGradient)"/>
  
  <!-- Ledger Book Icon -->
  <rect x="120" y="100" width="272" height="320" rx="20" fill="white" opacity="0.95"/>
  <rect x="140" y="120" width="232" height="280" rx="10" fill="url(#pageGradient)"/>
  
  <!-- Lines representing ledger entries -->
  <line x1="180" y1="180" x2="332" y2="180" stroke="white" stroke-width="8" stroke-linecap="round" opacity="0.8"/>
  <line x1="180" y1="220" x2="280" y2="220" stroke="white" stroke-width="8" stroke-linecap="round" opacity="0.8"/>
  <line x1="180" y1="260" x2="300" y2="260" stroke="white" stroke-width="8" stroke-linecap="round" opacity="0.8"/>
  
  <!-- Dollar sign -->
  <path d="M256 290 L256 370 M236 310 L276 310 C282 310 288 316 288 322 C288 328 282 334 276 334 L236 334 M236 346 L276 346 C282 346 288 352 288 358 C288 364 282 370 276 370 L236 370" 
        stroke="white" 
        stroke-width="10" 
        stroke-linecap="round" 
        stroke-linejoin="round"/>
  
  <!-- Chart line -->
  <path d="M160 340 L200 320 L240 330 L280 300 L320 315 L360 290" 
        stroke="#10B981" 
        stroke-width="6" 
        stroke-linecap="round" 
        stroke-linejoin="round"
        opacity="0.9"/>
  
  <!-- Sparkle/Star accents -->
  <circle cx="380" cy="130" r="12" fill="#FBBF24" opacity="0.8"/>
  <circle cx="420" cy="180" r="8" fill="#FBBF24" opacity="0.6"/>
  <circle cx="100" cy="160" r="10" fill="#FBBF24" opacity="0.7"/>
  
  <!-- Gradients -->
  <defs>
    <linearGradient id="bgGradient" x1="0%" y1="0%" x2="100%" y2="100%">
      <stop offset="0%" style="stop-color:#2563EB;stop-opacity:1" />
      <stop offset="50%" style="stop-color:#7C3AED;stop-opacity:1" />
      <stop offset="100%" style="stop-color:#DB2777;stop-opacity:1" />
    </linearGradient>
    <linearGradient id="pageGradient" x1="0%" y1="0%" x2="100%" y2="100%">
      <stop offset="0%" style="stop-color:#3B82F6;stop-opacity:1" />
      <stop offset="100%" style="stop-color:#8B5CF6;stop-opacity:1" />
    </linearGradient>
  </defs>
</svg>

